<?xml version="1.0" encoding="UTF-8" standalone="no"?>
<!DOCTYPE svg PUBLIC "-//W3C//DTD SVG 1.1//EN" "http://www.w3.org/Graphics/SVG/1.1/DTD/svg11.dtd">
<svg width="100%" height="100%" viewBox="0 0 2566 441" version="1.1" xmlns="http://www.w3.org/2000/svg" xmlns:xlink="http://www.w3.org/1999/xlink" xml:space="preserve" xmlns:serif="http://www.serif.com/" style="fill-rule:evenodd;clip-rule:evenodd;stroke-linejoin:round;stroke-miterlimit:2;">
    <g transform="matrix(1,0,0,1,-760.80642,-1783.933333)">
        <g transform="matrix(4.166667,0,0,4.166667,0,0)">
            <g transform="matrix(-92.903221,85.161293,85.161293,92.903221,311.928783,449.921426)">
                <path d="M0.676,-0.133C0.691,-0.136 0.705,-0.129 0.711,-0.115L0.791,0.082C0.794,0.09 0.794,0.099 0.791,0.106C0.787,0.114 0.781,0.119 0.773,0.122C0.751,0.129 0.728,0.135 0.705,0.138C0.702,0.139 0.7,0.139 0.697,0.138C0.692,0.138 0.687,0.135 0.682,0.132C0.676,0.127 0.672,0.119 0.671,0.111L0.653,-0.101C0.652,-0.111 0.656,-0.119 0.663,-0.125C0.666,-0.129 0.671,-0.131 0.676,-0.133Z" style="fill:url(#_Linear1);fill-rule:nonzero;"/>
            </g>
        </g>
        <g transform="matrix(4.166667,0,0,4.166667,0,0)">
            <g transform="matrix(-92.903221,85.161293,85.161293,92.903221,308.519626,446.202323)">
                <path d="M0.577,-0.114L0.577,-0.114C0.589,-0.105 0.592,-0.089 0.585,-0.076L0.481,0.11C0.477,0.117 0.47,0.122 0.462,0.124C0.458,0.125 0.454,0.126 0.451,0.125C0.446,0.124 0.442,0.123 0.439,0.121C0.419,0.108 0.401,0.094 0.384,0.078C0.378,0.072 0.374,0.065 0.374,0.056C0.374,0.048 0.378,0.04 0.384,0.034C0.384,0.034 0.539,-0.113 0.539,-0.113C0.549,-0.123 0.566,-0.123 0.577,-0.114Z" style="fill:url(#_Linear2);fill-rule:nonzero;"/>
            </g>
        </g>
        <g transform="matrix(4.166667,0,0,4.166667,0,0)">
            <g transform="matrix(-92.903221,85.161293,85.161293,92.903221,301.167575,438.181894)">
                <path d="M0.79,-0.086L0.994,-0.026C1.002,-0.024 1.009,-0.018 1.012,-0.011C1.016,-0.003 1.017,0.005 1.014,0.013C1.006,0.035 0.996,0.056 0.984,0.076C0.98,0.083 0.973,0.088 0.965,0.09C0.962,0.091 0.958,0.091 0.955,0.09C0.95,0.09 0.946,0.088 0.942,0.086L0.765,-0.033C0.752,-0.041 0.748,-0.057 0.755,-0.07C0.756,-0.074 0.759,-0.077 0.761,-0.08C0.769,-0.087 0.78,-0.089 0.79,-0.086Z" style="fill:url(#_Linear3);fill-rule:nonzero;"/>
            </g>
        </g>
        <g transform="matrix(4.166667,0,0,4.166667,0,0)">
            <g transform="matrix(-92.903221,85.161293,85.161293,92.903221,280.210409,415.319553)">
                <path d="M0.763,0.037L0.938,-0.085C0.944,-0.09 0.953,-0.091 0.961,-0.09C0.969,-0.088 0.976,-0.083 0.98,-0.076C0.992,-0.056 1.003,-0.035 1.011,-0.014C1.014,-0.006 1.014,0.002 1.01,0.01C1.007,0.017 1,0.023 0.992,0.025L0.789,0.09C0.785,0.092 0.78,0.092 0.776,0.091C0.767,0.09 0.758,0.084 0.754,0.075L0.753,0.075C0.747,0.063 0.75,0.048 0.76,0.039C0.761,0.038 0.762,0.038 0.763,0.037Z" style="fill:url(#_Linear4);fill-rule:nonzero;"/>
            </g>
        </g>
        <g transform="matrix(4.166667,0,0,4.166667,0,0)">
            <g transform="matrix(-92.903221,85.161293,85.161293,92.903221,273.461994,407.957629)">
                <path d="M0.432,-0.116C0.439,-0.121 0.447,-0.123 0.455,-0.121C0.463,-0.119 0.47,-0.114 0.474,-0.107L0.583,0.077C0.59,0.089 0.587,0.106 0.576,0.115L0.575,0.115C0.568,0.121 0.56,0.123 0.552,0.122C0.546,0.121 0.541,0.118 0.536,0.114L0.379,-0.029C0.373,-0.035 0.369,-0.043 0.369,-0.051C0.369,-0.059 0.372,-0.067 0.378,-0.073C0.381,-0.075 0.383,-0.078 0.386,-0.08C0.401,-0.094 0.416,-0.106 0.432,-0.116Z" style="fill:url(#_Linear5);fill-rule:nonzero;"/>
            </g>
        </g>
        <g transform="matrix(4.166667,0,0,4.166667,0,0)">
            <g transform="matrix(-92.903221,85.161293,85.161293,92.903221,269.812363,403.976197)">
                <path d="M0.675,-0.13C0.681,-0.135 0.689,-0.138 0.697,-0.137C0.72,-0.134 0.743,-0.129 0.765,-0.122C0.773,-0.12 0.779,-0.114 0.783,-0.107C0.787,-0.099 0.787,-0.091 0.784,-0.083L0.708,0.116C0.703,0.129 0.69,0.137 0.676,0.135C0.676,0.135 0.673,0.135 0.673,0.135C0.659,0.131 0.649,0.118 0.65,0.103L0.664,-0.109C0.665,-0.117 0.668,-0.124 0.674,-0.129C0.674,-0.13 0.674,-0.13 0.675,-0.13Z" style="fill:url(#_Linear6);fill-rule:nonzero;"/>
            </g>
        </g>
        <g transform="matrix(4.166667,0,0,4.166667,0,0)">
            <g transform="matrix(-92.903221,85.161293,85.161293,92.903221,291.258449,427.371954)">
                <path d="M0.032,-0.021L0.099,-0.073C0.106,-0.079 0.116,-0.081 0.125,-0.08C0.196,-0.071 0.507,-0.031 0.507,-0.031C0.521,-0.029 0.532,-0.017 0.532,-0.002L0.532,-0.001C0.532,0.013 0.522,0.026 0.507,0.028L0.126,0.08C0.116,0.081 0.106,0.078 0.098,0.072L0.031,0.013C0.021,0.004 0.021,-0.011 0.03,-0.019C0.031,-0.02 0.031,-0.02 0.032,-0.021Z" style="fill:url(#_Linear7);fill-rule:nonzero;"/>
            </g>
        </g>
        <g transform="matrix(4.166667,0,0,4.166667,0,0)">
            <g transform="matrix(1,0,0,1,301.0674,471.6881)">
                <path d="M0,20.059L14.938,20.059C15.008,22.051 15.862,23.58 17.499,24.646C19.134,25.715 21.091,26.213 23.368,26.141C29.199,26.141 32.152,24.186 32.224,20.273C32.224,19.278 32.046,18.458 31.69,17.818C31.334,17.178 30.712,16.683 29.823,16.326C28.934,15.969 28.205,15.738 27.636,15.632C27.066,15.526 26.142,15.366 24.862,15.151C16.895,14.085 11.453,12.841 8.536,11.416C3.557,9 1.067,5.159 1.067,-0.108C1.067,-5.656 3.094,-9.869 7.149,-12.751C11.204,-15.631 16.539,-17.072 23.154,-17.072C29.698,-17.072 35.122,-15.631 39.427,-12.751C43.73,-9.869 45.738,-5.834 45.455,-0.64L31.37,-0.64C31.298,-2.418 30.517,-3.735 29.023,-4.59C27.53,-5.442 25.644,-5.868 23.368,-5.868C21.162,-5.868 19.294,-5.388 17.766,-4.43C16.236,-3.469 15.472,-2.17 15.472,-0.534C15.472,0.677 15.898,1.638 16.752,2.347C17.606,3.059 18.477,3.504 19.367,3.682C20.254,3.859 21.411,4.019 22.834,4.162C30.729,5.087 36.065,6.119 38.84,7.254C44.53,9.675 47.304,14.014 47.163,20.273C47.09,24.186 45.898,27.441 43.588,30.037C41.275,32.634 38.466,34.464 35.158,35.531C31.85,36.599 28.133,37.131 24.008,37.131C8.43,37.131 0.427,31.443 0,20.059" style="fill:white;fill-rule:nonzero;"/>
            </g>
        </g>
        <g transform="matrix(4.166667,0,0,4.166667,0,0)">
            <g transform="matrix(1,0,0,1,373.6021,508.9246)">
                <path d="M0,-29.554L0,-16.109C3.698,-14.19 7.166,-13.282 10.404,-13.39C13.64,-13.496 16.36,-14.846 18.566,-17.444C20.77,-20.039 21.874,-23.435 21.874,-27.633C21.874,-31.332 20.895,-34.533 18.94,-37.237C16.982,-39.94 14.226,-41.292 10.67,-41.292C7.469,-41.221 4.908,-40.046 2.987,-37.771C1.066,-35.493 0.07,-32.755 0,-29.554M-2.455,-45.025C-1.104,-48.084 1.066,-50.415 4.055,-52.016C7.042,-53.616 10.278,-54.417 13.764,-54.417C20.948,-54.417 26.603,-51.802 30.73,-46.574C34.854,-41.346 36.919,-35.03 36.919,-27.633C36.919,-22.654 35.852,-18.118 33.718,-14.031C31.583,-9.938 28.81,-6.808 25.395,-4.638C21.981,-2.47 18.085,-1.172 13.711,-0.746C9.336,-0.317 4.908,-1.314 0.426,-3.732L0.426,24.863L-14.512,24.863L-14.512,-38.571C-14.512,-38.82 -14.53,-39.228 -14.565,-39.797C-14.602,-40.367 -14.655,-40.741 -14.725,-40.918C-14.796,-41.095 -14.903,-41.381 -15.045,-41.772C-15.188,-42.161 -15.384,-42.429 -15.632,-42.573C-15.882,-42.713 -16.166,-42.873 -16.486,-43.053C-16.806,-43.23 -17.216,-43.319 -17.712,-43.319L-19.312,-43.319L-19.42,-53.242C-17.429,-53.668 -15.544,-53.9 -13.765,-53.936C-11.988,-53.971 -10.19,-53.792 -8.376,-53.402C-6.562,-53.011 -5.122,-52.104 -4.054,-50.681C-2.988,-49.258 -2.455,-47.374 -2.455,-45.025" style="fill:white;fill-rule:nonzero;"/>
            </g>
        </g>
        <g transform="matrix(4.166667,0,0,4.166667,0,0)">
            <g transform="matrix(1,0,0,1,449.9785,474.1401)">
                <path d="M0,14.834L0,12.165C-2.917,10.175 -6.474,9.178 -10.67,9.178C-13.16,9.321 -15.188,10.084 -16.752,11.473C-18.317,12.859 -18.957,14.763 -18.672,17.181C-18.531,18.959 -17.784,20.328 -16.432,21.288C-15.081,22.249 -13.48,22.729 -11.63,22.729C-8.856,22.729 -6.278,22.035 -3.895,20.648C-1.512,19.262 -0.213,17.324 0,14.834M3.201,25.396C1.778,28.385 -0.623,30.608 -4,32.066C-7.38,33.522 -10.919,34.252 -14.618,34.252C-19.597,34.252 -23.919,32.778 -27.582,29.826C-31.247,26.873 -33.149,22.98 -33.291,18.141C-33.575,12.096 -31.833,7.489 -28.062,4.322C-24.293,1.158 -19.384,-0.425 -13.338,-0.425C-7.718,-0.425 -3.166,0.678 0.32,2.882L0.32,-0.64C0.32,-5.547 -3.947,-8 -12.483,-8C-18.672,-8 -23.617,-6.968 -27.315,-4.907L-29.236,-15.577C-23.831,-18.138 -17.392,-19.418 -9.922,-19.418C6.438,-19.418 14.618,-13.016 14.618,-0.211L14.618,18.355C14.618,19.779 14.636,20.773 14.672,21.342C14.707,21.911 14.867,22.569 15.152,23.315C15.436,24.063 15.916,24.543 16.593,24.755C17.268,24.97 18.21,25.041 19.42,24.97L19.527,33.292C16.822,33.791 14.261,34.039 11.844,34.039C9.425,34.039 7.38,33.31 5.709,31.852C4.037,30.394 3.201,28.242 3.201,25.396" style="fill:white;fill-rule:nonzero;"/>
            </g>
        </g>
        <g transform="matrix(4.166667,0,0,4.166667,0,0)">
            <g transform="matrix(1,0,0,1,493.3506,498.5409)">
                <path d="M0,-35.39C0.996,-38.234 2.829,-40.404 5.496,-41.898C8.163,-43.393 11.133,-44.139 14.405,-44.139C18.675,-44.282 22.337,-43.179 25.396,-40.832L22.088,-28.348C19.101,-30.337 15.899,-31.263 12.484,-31.122C9.071,-31.122 6.206,-30.036 3.896,-27.867C1.583,-25.696 0.427,-22.726 0.427,-18.958L0.427,8.892L-14.191,8.892L-14.191,-27.387C-14.191,-29.876 -14.511,-31.637 -15.151,-32.669C-15.792,-33.699 -17.178,-34.038 -19.312,-33.681L-19.312,-42.858C-16.61,-43.285 -13.889,-43.568 -11.15,-43.713C-8.413,-43.853 -5.939,-43.213 -3.734,-41.792C-1.53,-40.367 -0.284,-38.234 0,-35.39" style="fill:white;fill-rule:nonzero;"/>
            </g>
        </g>
        <g transform="matrix(4.166667,0,0,4.166667,0,0)">
            <g transform="matrix(1,0,0,1,540.2256,461.8712)">
                <path d="M0,13.018L3.628,13.018C9.104,13.018 12.945,11.329 15.151,7.948C17.355,4.572 18.459,-0.07 18.459,-5.975L32.544,-5.975C32.687,-0.001 31.866,5.104 30.091,9.337C28.311,13.57 25.038,16.931 20.273,19.42L34.999,43.961L34.999,45.456L19.953,45.456L7.683,24.114C6.402,24.542 4.979,24.754 3.415,24.754L0,24.754L0,45.456L-14.831,45.456L-14.831,-32.438L0,-32.438L0,13.018Z" style="fill:white;fill-rule:nonzero;"/>
            </g>
        </g>
        <g transform="matrix(4.166667,0,0,4.166667,0,0)">
            <g transform="matrix(-63.870968,105.677422,105.677422,63.870968,662.538888,379.171245)">
                <path d="M0.681,-0.338L1.221,-0.012L1.158,0.092L0.954,-0.031C0.93,-0.046 0.906,-0.05 0.883,-0.044C0.86,-0.038 0.842,-0.024 0.829,-0.002C0.817,0.018 0.814,0.038 0.82,0.058C0.826,0.079 0.841,0.096 0.866,0.109L1.072,0.234L1.009,0.338L0.803,0.214C0.754,0.184 0.722,0.15 0.707,0.11C0.693,0.071 0.7,0.026 0.729,-0.022C0.759,-0.071 0.796,-0.097 0.84,-0.1L0.618,-0.234L0.681,-0.338Z" style="fill:url(#_Linear8);fill-rule:nonzero;"/>
            </g>
        </g>
        <g transform="matrix(4.166667,0,0,4.166667,0,0)">
            <g transform="matrix(-63.870968,105.677422,105.677422,63.870968,713.332043,409.870398)">
                <path d="M0.492,-0.115C0.523,-0.166 0.567,-0.2 0.622,-0.217C0.677,-0.234 0.734,-0.225 0.792,-0.189C0.851,-0.154 0.886,-0.107 0.896,-0.049C0.906,0.008 0.896,0.062 0.865,0.114C0.834,0.165 0.791,0.199 0.736,0.216C0.68,0.233 0.623,0.224 0.564,0.189C0.505,0.153 0.47,0.106 0.46,0.048C0.45,-0.008 0.46,-0.062 0.491,-0.113C0.491,-0.114 0.492,-0.115 0.492,-0.115ZM0.776,0.057C0.79,0.034 0.793,0.009 0.786,-0.018C0.779,-0.045 0.761,-0.068 0.73,-0.087C0.7,-0.105 0.671,-0.111 0.644,-0.104C0.616,-0.097 0.596,-0.081 0.581,-0.057C0.567,-0.034 0.564,-0.009 0.571,0.018C0.577,0.045 0.596,0.068 0.626,0.086C0.657,0.104 0.686,0.11 0.713,0.103C0.74,0.097 0.761,0.082 0.775,0.059C0.775,0.058 0.775,0.058 0.776,0.057Z" style="fill:url(#_Linear9);fill-rule:nonzero;"/>
            </g>
        </g>
        <g transform="matrix(4.166667,0,0,4.166667,0,0)">
            <g transform="matrix(-63.870968,105.677422,105.677422,63.870968,755.146391,435.142779)">
                <path d="M0.351,-0.209C0.388,-0.225 0.426,-0.221 0.465,-0.198C0.501,-0.176 0.517,-0.143 0.513,-0.098C0.511,-0.072 0.497,-0.029 0.471,0.031C0.467,0.04 0.464,0.048 0.462,0.052C0.461,0.056 0.459,0.062 0.458,0.07C0.457,0.078 0.458,0.084 0.461,0.089C0.463,0.094 0.468,0.099 0.475,0.103C0.503,0.119 0.529,0.107 0.553,0.066C0.563,0.051 0.568,0.035 0.567,0.019C0.567,0.004 0.56,-0.009 0.546,-0.018L0.609,-0.121C0.686,-0.07 0.692,0.009 0.627,0.117C0.609,0.145 0.59,0.169 0.569,0.187C0.548,0.206 0.523,0.218 0.495,0.223C0.468,0.228 0.44,0.223 0.413,0.207C0.369,0.181 0.35,0.144 0.357,0.094C0.361,0.07 0.376,0.029 0.403,-0.029C0.408,-0.04 0.412,-0.049 0.414,-0.055C0.417,-0.062 0.417,-0.07 0.416,-0.079C0.415,-0.088 0.41,-0.095 0.401,-0.1C0.39,-0.107 0.378,-0.107 0.365,-0.101C0.352,-0.094 0.34,-0.083 0.331,-0.068C0.322,-0.052 0.317,-0.037 0.316,-0.023C0.316,-0.009 0.322,0.002 0.334,0.01L0.275,0.107C0.238,0.087 0.218,0.057 0.216,0.015C0.214,-0.027 0.227,-0.071 0.254,-0.116C0.282,-0.162 0.315,-0.193 0.351,-0.209Z" style="fill:url(#_Linear10);fill-rule:nonzero;"/>
            </g>
        </g>
        <g transform="matrix(4.166667,0,0,4.166667,0,0)">
            <g transform="matrix(-63.870968,105.677422,105.677422,63.870968,791.522342,457.128271)">
                <path d="M-0.018,-0.237L0.1,-0.181L0.145,-0.255L0.216,-0.212L0.182,-0.141L0.322,-0.056C0.358,-0.035 0.383,-0.011 0.398,0.015C0.414,0.041 0.419,0.068 0.414,0.095C0.41,0.122 0.399,0.149 0.382,0.175C0.365,0.202 0.343,0.229 0.315,0.255L0.242,0.198C0.261,0.181 0.276,0.165 0.288,0.148C0.3,0.131 0.304,0.113 0.3,0.093C0.296,0.074 0.282,0.058 0.259,0.044L0.12,-0.04L0.05,0.076L-0.027,0.029L0.043,-0.087L-0.068,-0.154L-0.018,-0.237Z" style="fill:url(#_Linear11);fill-rule:nonzero;"/>
            </g>
        </g>
    </g>
    <defs>
        <linearGradient id="_Linear1" x1="0" y1="0" x2="1" y2="0" gradientUnits="userSpaceOnUse" gradientTransform="matrix(1,0,0,-1,0,0.002531)"><stop offset="0" style="stop-color:rgb(244,54,84);stop-opacity:1"/><stop offset="1" style="stop-color:rgb(244,140,84);stop-opacity:1"/></linearGradient>
        <linearGradient id="_Linear2" x1="0" y1="0" x2="1" y2="0" gradientUnits="userSpaceOnUse" gradientTransform="matrix(1,0,0,-1,0,0.002422)"><stop offset="0" style="stop-color:rgb(244,54,84);stop-opacity:1"/><stop offset="1" style="stop-color:rgb(244,140,84);stop-opacity:1"/></linearGradient>
        <linearGradient id="_Linear3" x1="0" y1="0" x2="1" y2="0" gradientUnits="userSpaceOnUse" gradientTransform="matrix(1,0,0,-1,0,0.001596)"><stop offset="0" style="stop-color:rgb(244,54,84);stop-opacity:1"/><stop offset="1" style="stop-color:rgb(244,140,84);stop-opacity:1"/></linearGradient>
        <linearGradient id="_Linear4" x1="0" y1="0" x2="1" y2="0" gradientUnits="userSpaceOnUse" gradientTransform="matrix(1,0,0,-1,0,0.000724)"><stop offset="0" style="stop-color:rgb(244,54,84);stop-opacity:1"/><stop offset="1" style="stop-color:rgb(244,140,84);stop-opacity:1"/></linearGradient>
        <linearGradient id="_Linear5" x1="0" y1="0" x2="1" y2="0" gradientUnits="userSpaceOnUse" gradientTransform="matrix(1,0,0,-1,0,0.000256)"><stop offset="0" style="stop-color:rgb(244,54,84);stop-opacity:1"/><stop offset="1" style="stop-color:rgb(244,140,84);stop-opacity:1"/></linearGradient>
        <linearGradient id="_Linear6" x1="0" y1="0" x2="1" y2="0" gradientUnits="userSpaceOnUse" gradientTransform="matrix(1,0,0,-1,0,-0.000806)"><stop offset="0" style="stop-color:rgb(244,54,84);stop-opacity:1"/><stop offset="1" style="stop-color:rgb(244,140,84);stop-opacity:1"/></linearGradient>
        <linearGradient id="_Linear7" x1="0" y1="0" x2="1" y2="0" gradientUnits="userSpaceOnUse" gradientTransform="matrix(1,0,0,-1,0,-0.000135)"><stop offset="0" style="stop-color:rgb(244,54,84);stop-opacity:1"/><stop offset="1" style="stop-color:rgb(244,140,84);stop-opacity:1"/></linearGradient>
        <linearGradient id="_Linear8" x1="0" y1="0" x2="1" y2="0" gradientUnits="userSpaceOnUse" gradientTransform="matrix(1,0,0,-1,0,0.000002)"><stop offset="0" style="stop-color:rgb(244,54,84);stop-opacity:1"/><stop offset="1" style="stop-color:rgb(244,140,84);stop-opacity:1"/></linearGradient>
        <linearGradient id="_Linear9" x1="0" y1="0" x2="1" y2="0" gradientUnits="userSpaceOnUse" gradientTransform="matrix(1,0,0,-1,0,-0.000169)"><stop offset="0" style="stop-color:rgb(244,54,84);stop-opacity:1"/><stop offset="1" style="stop-color:rgb(244,140,84);stop-opacity:1"/></linearGradient>
        <linearGradient id="_Linear10" x1="0" y1="0" x2="1" y2="0" gradientUnits="userSpaceOnUse" gradientTransform="matrix(1,0,0,-1,0,0.002968)"><stop offset="0" style="stop-color:rgb(244,54,84);stop-opacity:1"/><stop offset="1" style="stop-color:rgb(244,140,84);stop-opacity:1"/></linearGradient>
        <linearGradient id="_Linear11" x1="0" y1="0" x2="1" y2="0" gradientUnits="userSpaceOnUse" gradientTransform="matrix(1,0,0,-1,0,0.000005)"><stop offset="0" style="stop-color:rgb(244,54,84);stop-opacity:1"/><stop offset="1" style="stop-color:rgb(244,140,84);stop-opacity:1"/></linearGradient>
    </defs>
</svg>
