<svg xmlns="http://www.w3.org/2000/svg" xml:space="preserve" style="fill-rule:evenodd;clip-rule:evenodd;stroke-linejoin:round;stroke-miterlimit:2" viewBox="0 0 2566 441"><path d="M.676-.133a.03.03 0 0 1 .035.018l.08.197a.03.03 0 0 1 0 .024.03.03 0 0 1-.018.016.4.4 0 0 1-.076.016Q.689.138.682.132A.03.03 0 0 1 .671.111L.653-.101a.03.03 0 0 1 .01-.024q.005-.006.013-.008" style="fill:url(#a);fill-rule:nonzero" transform="rotate(137.49 251.8 150.18)scale(525.12328 -525.12328)"/><path d="M.577-.114a.03.03 0 0 1 .008.038L.481.11a.03.03 0 0 1-.019.014Q.456.126.451.125L.439.121A.4.4 0 0 1 .384.078a.03.03 0 0 1-.01-.022q0-.012.01-.022l.155-.147c.01-.01.027-.01.038-.001" style="fill:url(#b);fill-rule:nonzero" transform="rotate(137.49 247.712 139.67)scale(525.12328 -525.12328)"/><path d="m.79-.086.204.06a.03.03 0 0 1 .018.015.03.03 0 0 1 .002.024.4.4 0 0 1-.03.063.03.03 0 0 1-.019.014h-.01Q.948.09.942.086L.765-.033a.03.03 0 0 1-.01-.037q.002-.006.006-.01A.03.03 0 0 1 .79-.086" style="fill:url(#c);fill-rule:nonzero" transform="rotate(137.49 238.895 117.003)scale(525.12328 -525.12328)"/><path d="m.763.037.175-.122q.01-.007.023-.005a.03.03 0 0 1 .019.014q.018.03.031.062A.03.03 0 0 1 1.01.01a.03.03 0 0 1-.018.015L.789.09a.02.02 0 0 1-.013.001.03.03 0 0 1-.022-.016H.753A.03.03 0 0 1 .76.039z" style="fill:url(#d);fill-rule:nonzero" transform="rotate(137.49 213.761 52.39)scale(525.12328 -525.12328)"/><path d="M.432-.116a.03.03 0 0 1 .023-.005.03.03 0 0 1 .019.014l.109.184a.03.03 0 0 1-.007.038H.575a.03.03 0 0 1-.023.007.04.04 0 0 1-.016-.008L.379-.029a.03.03 0 0 1-.01-.022q0-.013.009-.022L.386-.08a.3.3 0 0 1 .046-.036" style="fill:url(#e);fill-rule:nonzero" transform="rotate(137.49 205.668 31.583)scale(525.12328 -525.12328)"/><path d="M.675-.13a.03.03 0 0 1 .022-.007.4.4 0 0 1 .068.015.03.03 0 0 1 .018.015.03.03 0 0 1 .001.024L.708.116a.03.03 0 0 1-.032.019H.673A.03.03 0 0 1 .65.103l.014-.212a.03.03 0 0 1 .01-.02z" style="fill:url(#f);fill-rule:nonzero" transform="rotate(137.49 201.291 20.331)scale(525.12328 -525.12328)"/><path d="m.032-.021.067-.052A.04.04 0 0 1 .125-.08l.382.049a.03.03 0 0 1 .025.029v.001a.03.03 0 0 1-.025.029L.126.08A.04.04 0 0 1 .098.072L.031.013C.021.004.021-.011.03-.019z" style="fill:url(#g);fill-rule:nonzero" transform="rotate(137.49 227.01 86.452)scale(525.12328 -525.12328)"/><path d="M0 20.059h14.938q.105 2.988 2.561 4.587 2.453 1.603 5.869 1.495 8.747 0 8.856-5.868 0-1.494-.534-2.455-.534-.958-1.867-1.492-1.333-.535-2.187-.694a183 183 0 0 0-2.774-.481q-11.95-1.598-16.326-3.735Q1.067 7.792 1.067-.108q0-8.321 6.082-12.643 6.083-4.32 16.005-4.321 9.816 0 16.273 4.321Q45.88-8.43 45.455-.64H31.37q-.107-2.667-2.347-3.95-2.24-1.278-5.655-1.278-3.31 0-5.602 1.438-2.294 1.442-2.294 3.896 0 1.817 1.28 2.881 1.28 1.068 2.615 1.335 1.331.265 3.467.48Q34.677 5.55 38.84 7.254q8.535 3.631 8.323 13.019-.11 5.87-3.575 9.764a18.83 18.83 0 0 1-8.43 5.494q-4.962 1.601-11.15 1.6C8.43 37.131.427 31.443 0 20.059" style="fill:#fff;fill-rule:nonzero" transform="translate(493.641 181.434)scale(4.16667)"/><path d="M0-29.554v13.445q5.547 2.88 10.404 2.719 4.854-.158 8.162-4.054 3.307-3.892 3.308-10.189 0-5.548-2.934-9.604-2.936-4.055-8.27-4.055-4.802.108-7.683 3.521Q.105-34.355 0-29.554m-2.455-15.471q2.027-4.589 6.51-6.991 4.48-2.4 9.709-2.401 10.776 0 16.966 7.843 6.187 7.844 6.189 18.941 0 7.47-3.201 13.602-3.201 6.139-8.323 9.393-5.122 3.253-11.684 3.892Q7.149-.104.426-3.732v28.595h-14.938v-63.434q0-.373-.053-1.226-.055-.855-.16-1.121a31 31 0 0 1-.32-.854q-.215-.584-.587-.801l-.854-.48q-.481-.266-1.226-.266h-1.6l-.108-9.923q2.986-.64 5.655-.694a23.4 23.4 0 0 1 5.389.534q2.72.586 4.322 2.721 1.599 2.133 1.599 5.656" style="fill:#fff;fill-rule:nonzero" transform="translate(795.87 336.586)scale(4.16667)"/><path d="M0 14.834v-2.669q-4.376-2.986-10.67-2.987-3.735.213-6.082 2.295-2.347 2.08-1.92 5.708.212 2.667 2.24 4.107t4.802 1.441q4.16 0 7.735-2.081Q-.32 18.569 0 14.834m3.201 10.562Q1.066 29.879-4 32.066a26.6 26.6 0 0 1-10.618 2.186q-7.469.001-12.964-4.426-5.497-4.428-5.709-11.685-.427-9.068 5.229-13.819 5.654-4.746 14.724-4.747 8.43 0 13.658 3.307V-.64Q.32-8-12.483-8q-9.284 0-14.832 3.093l-1.921-10.67q8.108-3.841 19.314-3.841 24.54 0 24.54 19.207v18.566q0 2.135.054 2.987.052.854.48 1.973.426 1.122 1.441 1.44 1.012.322 2.827.215l.107 8.322q-4.057.748-7.683.747-3.629 0-6.135-2.187-2.508-2.187-2.508-6.456" style="fill:#fff;fill-rule:nonzero" transform="translate(1114.104 191.65)scale(4.16667)"/><path d="M0-35.39q1.495-4.267 5.496-6.508 4-2.242 8.909-2.241 6.404-.214 10.991 3.307l-3.308 12.484q-4.481-2.984-9.604-2.774-5.121 0-8.588 3.255Q.426-24.61.427-18.958v27.85h-14.618v-36.279q0-3.734-.96-5.282-.96-1.546-4.161-1.012v-9.177a79 79 0 0 1 8.162-.855q4.107-.21 7.416 1.921Q-.427-39.655 0-35.39" style="fill:#fff;fill-rule:nonzero" transform="translate(1294.821 293.32)scale(4.16667)"/><path d="M0 13.018h3.628q8.214 0 11.523-5.07 3.307-5.065 3.308-13.923h14.085c.143 5.974-.678 11.079-2.453 15.312q-2.67 6.35-9.818 10.083l14.726 24.541v1.495H19.953L7.683 24.114q-1.922.641-4.268.64H0v20.702h-14.831v-77.894H0z" style="fill:#fff;fill-rule:nonzero" transform="translate(1490.134 140.53)scale(4.16667)"/><path d="m.681-.338.54.326-.063.104-.204-.123a.09.09 0 0 0-.071-.013.1.1 0 0 0-.054.042.07.07 0 0 0-.009.06Q.829.09.866.109l.206.125-.063.104L.803.214A.2.2 0 0 1 .707.11Q.686.05.729-.022.774-.095.84-.1L.618-.234z" style="fill:url(#h);fill-rule:nonzero" transform="rotate(121.149 1057.436 461.972)scale(514.49848 -514.49848)"/><path d="M.492-.115a.23.23 0 0 1 .13-.102.2.2 0 0 1 .17.028.2.2 0 0 1 .104.14.23.23 0 0 1-.031.163.23.23 0 0 1-.129.102.2.2 0 0 1-.172-.027A.2.2 0 0 1 .46.048Q.445-.036.491-.113zm.284.172a.1.1 0 0 0 .01-.075.12.12 0 0 0-.056-.069.11.11 0 0 0-.086-.017.1.1 0 0 0-.063.047.1.1 0 0 0-.01.075q.01.04.055.068.046.027.087.017A.1.1 0 0 0 .775.059z" style="fill:url(#i);fill-rule:nonzero" transform="rotate(121.149 1127.18 585.617)scale(514.49848 -514.49848)"/><path d="M.351-.209a.12.12 0 0 1 .114.011q.054.033.048.1a.5.5 0 0 1-.042.129L.462.052.458.07a.03.03 0 0 0 .003.019q.003.008.014.014.042.024.078-.037A.08.08 0 0 0 .567.019a.04.04 0 0 0-.021-.037l.063-.103q.115.076.018.238a.3.3 0 0 1-.058.07.15.15 0 0 1-.074.036.12.12 0 0 1-.082-.016Q.347.168.357.094a.6.6 0 0 1 .046-.123l.011-.026a.1.1 0 0 0 .002-.024Q.414-.092.401-.1.384-.11.365-.101a.1.1 0 0 0-.034.033.1.1 0 0 0-.015.045q0 .021.018.033L.275.107A.1.1 0 0 1 .216.015a.23.23 0 0 1 .038-.131.23.23 0 0 1 .097-.093" style="fill:url(#j);fill-rule:nonzero" transform="rotate(121.149 1184.594 687.405)scale(514.49848 -514.49848)"/><path d="M-.018-.237.1-.181l.045-.074.071.043-.034.071.14.085a.2.2 0 0 1 .076.071q.024.04.016.08a.2.2 0 0 1-.032.08.4.4 0 0 1-.067.08L.242.198a.3.3 0 0 0 .046-.05A.07.07 0 0 0 .3.093Q.294.065.259.044L.12-.04.05.076-.027.029l.07-.116-.111-.067z" style="fill:url(#k);fill-rule:nonzero" transform="rotate(121.149 1234.541 775.955)scale(514.49848 -514.49848)"/><defs><linearGradient id="a" x1="0" x2="1" y1="0" y2="0" gradientTransform="matrix(1 0 0 -1 0 .003)" gradientUnits="userSpaceOnUse"><stop offset="0" style="stop-color:#f43654;stop-opacity:1"/><stop offset="1" style="stop-color:#f48c54;stop-opacity:1"/></linearGradient><linearGradient id="b" x1="0" x2="1" y1="0" y2="0" gradientTransform="matrix(1 0 0 -1 0 .002)" gradientUnits="userSpaceOnUse"><stop offset="0" style="stop-color:#f43654;stop-opacity:1"/><stop offset="1" style="stop-color:#f48c54;stop-opacity:1"/></linearGradient><linearGradient id="c" x1="0" x2="1" y1="0" y2="0" gradientTransform="matrix(1 0 0 -1 0 .002)" gradientUnits="userSpaceOnUse"><stop offset="0" style="stop-color:#f43654;stop-opacity:1"/><stop offset="1" style="stop-color:#f48c54;stop-opacity:1"/></linearGradient><linearGradient id="d" x1="0" x2="1" y1="0" y2="0" gradientTransform="scale(1 -1)" gradientUnits="userSpaceOnUse"><stop offset="0" style="stop-color:#f43654;stop-opacity:1"/><stop offset="1" style="stop-color:#f48c54;stop-opacity:1"/></linearGradient><linearGradient id="e" x1="0" x2="1" y1="0" y2="0" gradientTransform="scale(1 -1)" gradientUnits="userSpaceOnUse"><stop offset="0" style="stop-color:#f43654;stop-opacity:1"/><stop offset="1" style="stop-color:#f48c54;stop-opacity:1"/></linearGradient><linearGradient id="f" x1="0" x2="1" y1="0" y2="0" gradientTransform="scale(1 -1)" gradientUnits="userSpaceOnUse"><stop offset="0" style="stop-color:#f43654;stop-opacity:1"/><stop offset="1" style="stop-color:#f48c54;stop-opacity:1"/></linearGradient><linearGradient id="g" x1="0" x2="1" y1="0" y2="0" gradientTransform="scale(1 -1)" gradientUnits="userSpaceOnUse"><stop offset="0" style="stop-color:#f43654;stop-opacity:1"/><stop offset="1" style="stop-color:#f48c54;stop-opacity:1"/></linearGradient><linearGradient id="h" x1="0" x2="1" y1="0" y2="0" gradientTransform="scale(1 -1)" gradientUnits="userSpaceOnUse"><stop offset="0" style="stop-color:#f43654;stop-opacity:1"/><stop offset="1" style="stop-color:#f48c54;stop-opacity:1"/></linearGradient><linearGradient id="i" x1="0" x2="1" y1="0" y2="0" gradientTransform="scale(1 -1)" gradientUnits="userSpaceOnUse"><stop offset="0" style="stop-color:#f43654;stop-opacity:1"/><stop offset="1" style="stop-color:#f48c54;stop-opacity:1"/></linearGradient><linearGradient id="j" x1="0" x2="1" y1="0" y2="0" gradientTransform="matrix(1 0 0 -1 0 .003)" gradientUnits="userSpaceOnUse"><stop offset="0" style="stop-color:#f43654;stop-opacity:1"/><stop offset="1" style="stop-color:#f48c54;stop-opacity:1"/></linearGradient><linearGradient id="k" x1="0" x2="1" y1="0" y2="0" gradientTransform="scale(1 -1)" gradientUnits="userSpaceOnUse"><stop offset="0" style="stop-color:#f43654;stop-opacity:1"/><stop offset="1" style="stop-color:#f48c54;stop-opacity:1"/></linearGradient></defs></svg>